<svg width="32" height="33" viewBox="0 0 32 33" fill="none" xmlns="http://www.w3.org/2000/svg">
<path d="M28.0398 20.5911H11.754L12.1176 22.5911H27.0297C27.8853 22.5911 28.5195 23.4849 28.3299 24.4236L28.0234 25.9408C29.0618 26.5079 29.7778 27.7054 29.7778 29.0911C29.7778 31.0412 28.3601 32.6189 26.6209 32.5907C24.9641 32.5639 23.6014 31.0513 23.5567 29.1878C23.5323 28.1699 23.8948 27.2472 24.4902 26.5911H12.8431C13.4196 27.2264 13.7778 28.1115 13.7778 29.0911C13.7778 31.0794 12.304 32.6806 10.5183 32.5872C8.93278 32.5044 7.64328 31.0632 7.55995 29.2799C7.49561 27.9028 8.13972 26.689 9.11834 26.0558L5.21572 4.59112H1.33333C0.596945 4.59112 0 3.91956 0 3.09113V2.09113C0 1.26269 0.596945 0.591125 1.33333 0.591125H7.02939C7.66278 0.591125 8.20872 1.09244 8.33567 1.7905L8.84489 4.59112H30.6661C31.5217 4.59112 32.1559 5.48494 31.9663 6.42356L29.34 19.4236C29.2021 20.1065 28.6624 20.5911 28.0398 20.5911ZM22.6667 11.0911H20V8.59112C20 8.03881 19.6021 7.59112 19.1111 7.59112H18.2222C17.7313 7.59112 17.3333 8.03881 17.3333 8.59112V11.0911H14.6667C14.1757 11.0911 13.7778 11.5388 13.7778 12.0911V13.0911C13.7778 13.6434 14.1757 14.0911 14.6667 14.0911H17.3333V16.5911C17.3333 17.1434 17.7313 17.5911 18.2222 17.5911H19.1111C19.6021 17.5911 20 17.1434 20 16.5911V14.0911H22.6667C23.1576 14.0911 23.5556 13.6434 23.5556 13.0911V12.0911C23.5556 11.5388 23.1576 11.0911 22.6667 11.0911Z" fill="#404040"/>
</svg>
