<svg width="24" height="23" viewBox="0 0 24 23" fill="none" xmlns="http://www.w3.org/2000/svg">
<path d="M22.005 13.467L23.9747 4.43922C24.1169 3.7874 23.6413 3.16669 22.9996 3.16669H6.63367L6.25175 1.22182C6.15658 0.73705 5.74708 0.388916 5.27204 0.388916H1C0.447708 0.388916 0 0.855279 0 1.43058V2.12503C0 2.70033 0.447708 3.16669 1 3.16669H3.91179L6.83879 18.0727C6.13854 18.4922 5.66667 19.2788 5.66667 20.1806C5.66667 21.5229 6.71133 22.6111 8 22.6111C9.28867 22.6111 10.3333 21.5229 10.3333 20.1806C10.3333 19.5003 10.0647 18.8857 9.63233 18.4445H18.3676C17.9353 18.8857 17.6667 19.5003 17.6667 20.1806C17.6667 21.5229 18.7113 22.6111 20 22.6111C21.2887 22.6111 22.3333 21.5229 22.3333 20.1806C22.3333 19.2183 21.7963 18.3867 21.0175 17.9929L21.2474 16.9392C21.3896 16.2874 20.914 15.6667 20.2723 15.6667H9.08821L8.8155 14.2778H21.0299C21.4968 14.2778 21.9015 13.9413 22.005 13.467Z" fill="white"/>
</svg>
