<svg width="20" height="17" viewBox="0 0 20 17" fill="none" xmlns="http://www.w3.org/2000/svg">
<path d="M19.6211 5.78333C19.7734 5.65417 20 5.775 20 5.97917V14.5C20 15.6042 19.1602 16.5 18.125 16.5H1.875C0.839844 16.5 0 15.6042 0 14.5V5.98333C0 5.775 0.222656 5.65833 0.378906 5.7875C1.25391 6.5125 2.41406 7.43333 6.39844 10.5208C7.22266 11.1625 8.61328 12.5125 10 12.5042C11.3945 12.5167 12.8125 11.1375 13.6055 10.5208C17.5898 7.43333 18.7461 6.50833 19.6211 5.78333ZM10 11.1667C10.9062 11.1833 12.2109 9.95 12.8672 9.44167C18.0508 5.42917 18.4453 5.07917 19.6406 4.07917C19.8672 3.89167 20 3.6 20 3.29167V2.5C20 1.39583 19.1602 0.5 18.125 0.5H1.875C0.839844 0.5 0 1.39583 0 2.5V3.29167C0 3.6 0.132812 3.8875 0.359375 4.07917C1.55469 5.075 1.94922 5.42917 7.13281 9.44167C7.78906 9.95 9.09375 11.1833 10 11.1667Z" fill="black"/>
</svg>
