<svg width="25" height="24" viewBox="0 0 25 24" fill="none" xmlns="http://www.w3.org/2000/svg">
<path d="M18.3476 15.5469C19.8605 13.5957 20.5381 11.1766 20.2449 8.77348C19.9516 6.3704 18.7092 4.16056 16.766 2.5861C14.8229 1.01163 12.3224 0.188642 9.76484 0.281782C7.20726 0.374922 4.7812 1.37732 2.97202 3.08844C1.16285 4.79955 0.103978 7.09319 0.00725994 9.51048C-0.089458 11.9278 0.783107 14.2904 2.45039 16.1258C4.11766 17.9612 6.4567 19.1339 8.99953 19.4093C11.5424 19.6847 14.1015 19.0426 16.1649 17.6113H16.1633C16.2091 17.6704 16.2602 17.727 16.3164 17.7811L22.3318 23.4664C22.6248 23.7435 23.0222 23.8992 23.4367 23.8994C23.8512 23.8995 24.2487 23.744 24.5419 23.4671C24.8351 23.1902 24.9999 22.8146 25 22.4229C25.0001 22.0312 24.8356 21.6554 24.5427 21.3783L18.5273 15.6931C18.4714 15.6396 18.4114 15.5917 18.3476 15.5469ZM18.7507 9.87045C18.7507 10.937 18.5284 11.9932 18.0966 12.9785C17.6647 13.9639 17.0317 14.8593 16.2337 15.6135C15.4358 16.3676 14.4884 16.9659 13.4458 17.374C12.4032 17.7822 11.2858 17.9923 10.1573 17.9923C9.02877 17.9923 7.91131 17.7822 6.86871 17.374C5.82611 16.9659 4.87877 16.3676 4.0808 15.6135C3.28283 14.8593 2.64984 13.9639 2.21798 12.9785C1.78612 11.9932 1.56384 10.937 1.56384 9.87045C1.56384 7.71641 2.46922 5.65059 4.0808 4.12745C5.69238 2.60431 7.87815 1.74862 10.1573 1.74862C12.4364 1.74862 14.6222 2.60431 16.2337 4.12745C17.8453 5.65059 18.7507 7.71641 18.7507 9.87045Z" fill="#393939"/>
</svg>
